<?xml version="1.0" encoding="UTF-8" standalone="no"?>
<!DOCTYPE svg PUBLIC "-//W3C//DTD SVG 1.1//EN" "http://www.w3.org/Graphics/SVG/1.1/DTD/svg11.dtd">
<svg version="1.1" xmlns="http://www.w3.org/2000/svg" xmlns:xlink="http://www.w3.org/1999/xlink" preserveAspectRatio="xMidYMid meet" viewBox="0 0 640 640" width="640" height="640"><defs><path d="M483.41 629.84C469.19 643.65 446.54 643.33 432.73 629.11C414.29 610.09 322.05 514.99 156.02 343.8L181.69 318.8C166.22 333.8 157.63 342.14 155.91 343.8C142.11 329.53 142.42 306.82 156.69 292.97C157.11 292.55 157.53 292.19 157.94 291.82C185.42 263.73 405.26 38.98 432.73 10.89C446.54 -3.33 469.19 -3.65 483.41 10.16C497.63 23.96 497.89 46.67 484.09 60.83C467.26 78.04 383.13 164.06 231.69 318.91L484.09 579.17L484.09 579.17L484.09 579.17C493.08 603.75 492.86 620.64 483.41 629.84Z" id="bvCuWR5Os"></path></defs><g><g><g><use xlink:href="#bvCuWR5Os" opacity="1" fill="#ffffff" fill-opacity="1"></use><g><use xlink:href="#bvCuWR5Os" opacity="1" fill-opacity="0" stroke="#000000" stroke-width="1" stroke-opacity="0"></use></g></g></g></g></svg>